<svg xmlns="http://www.w3.org/2000/svg" width="1969" height="1969" viewBox="0 0 1969 1969" fill="#C73336">
  <path d="M984 485c-275,0 -499,224 -499,499 0,275 224,499 499,499 275,0 499,-224 499,-499 0,-275 -224,-499 -499,-499zm0 27c261,0 473,212 473,472 0,261 -212,473 -473,473 -260,0 -472,-212 -472,-473 0,-260 212,-472 472,-472zm0 25c-246,0 -447,201 -447,447 0,246 201,447 447,447 246,0 447,-201 447,-447 0,-246 -201,-447 -447,-447zm-26 802l25 -181 49 222 -6 0c-14,2 -28,2 -42,2 -219,0 -398,-178 -398,-398 0,-219 179,-398 398,-398 15,0 30,1 44,3l6 0 -29 219 -35 -183c-457,49 -442,672 -12,714zm137 -686l-72 602 -103 -531c-268,54 -253,477 23,516l5 0 -7 47c-130,-34 -235,-119 -256,-257 -16,-109 26,-227 112,-297 44,-35 96,-56 152,-59l5 0 56 295 48 -376 5 1c185,38 319,201 319,390 0,179 -120,336 -292,384l-6 2 0 -44 3 -1c110,-39 196,-117 231,-229 30,-97 17,-205 -34,-292 -42,-73 -108,-126 -189,-151z"/>
</svg>
